<svg width="47" height="42" viewBox="0 0 47 42" fill="none" xmlns="http://www.w3.org/2000/svg">
<path d="M11.2761 37C11.2761 31.1945 9.00313 25.9148 6.64055 20.6045C6.13227 19.4621 5.52093 18.3883 5.10223 17.2177C4.91051 16.6816 4.93633 16.5231 5.6391 16.7174C7.29207 17.1743 8.6005 18.0696 10.0476 18.8919C11.9567 19.9768 13.5545 21.3754 14.9413 23.01C15.7581 23.9728 16.7488 24.7626 17.5946 25.7041C18.3077 26.4979 19.6451 27.5195 20.0105 28.4559C20.3025 29.2043 20.786 29.8309 21.0842 30.5534C21.3861 31.2849 21.3113 29.0605 21.3113 28.9658C21.3113 26.3331 20.9757 23.7872 20.6093 21.1818C20.3375 19.2492 19.8246 17.2176 19.8246 15.2741C19.8246 14.351 19.5277 13.5622 19.0813 12.7532C18.4401 11.5912 17.5946 10.8679 17.5946 9.46256C17.5946 9.38048 17.5341 8.87776 17.6875 8.93336C19.7701 9.68815 21.555 12.2901 22.7154 13.927C24.7683 16.8231 27.327 19.5634 28.848 22.7406C30.2223 25.6113 31.3302 29.0707 33.3907 31.6311" stroke="#FD0F0F" stroke-width="10" stroke-linecap="round"/>
<path d="M22.4824 21.1208C22.6806 20.2899 24.3024 19.9359 25.0291 19.6349C26.0685 19.2044 27.0925 18.7485 28.0409 18.1592C28.9407 17.6002 30.0086 17.092 30.9419 16.5804C31.6494 16.1925 32.2958 15.5658 32.9461 15.0944C33.4388 14.7372 34.119 14.572 34.6402 14.2482" stroke="black" stroke-width="10" stroke-linecap="round"/>
<path d="M23.1035 5C25.1153 7.81241 26.879 10.8742 28.4465 13.9221C29.5868 16.1394 31.0978 18.2124 32.0347 20.5225C33.2471 23.512 35.452 26.0716 37.2367 28.7583C37.7414 29.5181 38.7754 29.4824 39.1796 28.7291C39.6008 27.944 40.1644 26.9646 40.4487 26.1298C40.8955 24.8184 40.8755 23.0014 41.9999 21.9535" stroke="black" stroke-width="10" stroke-linecap="round"/>
</svg>
